HIERARCHY
ROOT Hips
{
	OFFSET	0.000000	0.000000	0.000000
	CHANNELS 6 Xposition Yposition Zposition Zrotation Xrotation Yrotation
	JOINT LeftUpLeg
	{
		OFFSET	12.830505	-7.049846	-1.643436
		CHANNELS 3 Zrotation Xrotation Yrotation
		JOINT LeftLeg
		{
			OFFSET	0.620834	-39.957502	-1.919341
			CHANNELS 3 Zrotation Xrotation Yrotation
			JOINT LeftFoot
			{
				OFFSET	-0.413890	-44.704761	-3.870325
				CHANNELS 3 Zrotation Xrotation Yrotation
				JOINT LeftFootHeel
				{
					OFFSET	0.164738	-8.918194	-6.555130
					CHANNELS 3 Zrotation Xrotation Yrotation
					End Site
					{
						OFFSET	-0.604053	0.000000	21.044330
					}
				}
			}
		}
	}
	JOINT RightUpLeg
	{
		OFFSET	-12.830505	-7.049846	-1.643436
		CHANNELS 3 Zrotation Xrotation Yrotation
		JOINT RightLeg
		{
			OFFSET	-0.620834	-39.957502	-1.919341
			CHANNELS 3 Zrotation Xrotation Yrotation
			JOINT RightFoot
			{
				OFFSET	0.413890	-44.704761	-3.870325
				CHANNELS 3 Zrotation Xrotation Yrotation
				JOINT RightFootHeel
				{
					OFFSET	-0.164738	-8.918194	-6.555130
					CHANNELS 3 Zrotation Xrotation Yrotation
					End Site
					{
						OFFSET	0.604053	0.000000	21.044330
					}
				}
			}
		}
	}
	JOINT Spine
	{
		OFFSET	0.000000	12.498171	1.820647
		CHANNELS 3 Zrotation Xrotation Yrotation
		JOINT Spine1
		{
			OFFSET	0.000000	7.620000	0.000000
			CHANNELS 3 Zrotation Xrotation Yrotation
			JOINT LeftShoulder
			{
				OFFSET	9.167800	29.136339	-5.551221
				CHANNELS 3 Zrotation Xrotation Yrotation
				JOINT LeftArm
				{
					OFFSET	12.133453	-3.880866	1.461963
					CHANNELS 3 Zrotation Xrotation Yrotation
					JOINT LeftForeArm
					{
						OFFSET	2.507115	-31.664910	-1.069404
						CHANNELS 3 Zrotation Xrotation Yrotation
						JOINT LeftHand
						{
							OFFSET	4.116172	-24.512624	5.009439
							CHANNELS 3 Zrotation Xrotation Yrotation
							End Site
							{
								OFFSET	-0.213136	-10.931856	2.182134
							}
						}
					}
				}
			}
			JOINT RightShoulder
			{
				OFFSET	-9.167800	29.136339	-5.551221
				CHANNELS 3 Zrotation Xrotation Yrotation
				JOINT RightArm
				{
					OFFSET	-12.133453	-3.880866	1.461963
					CHANNELS 3 Zrotation Xrotation Yrotation
					JOINT RightForeArm
					{
						OFFSET	-2.507115	-31.664910	-1.069404
						CHANNELS 3 Zrotation Xrotation Yrotation
						JOINT RightHand
						{
							OFFSET	-4.116172	-24.512624	5.009439
							CHANNELS 3 Zrotation Xrotation Yrotation
							End Site
							{
								OFFSET	0.213136	-10.931856	2.182134
							}
						}
					}
				}
			}
			JOINT Neck
			{
				OFFSET	0.000000	32.926275	-3.635654
				CHANNELS 3 Zrotation Xrotation Yrotation
				JOINT Head
				{
					OFFSET	0.000000	12.481178	4.646143
					CHANNELS 3 Zrotation Xrotation Yrotation
					End Site
					{
						OFFSET	0.000000	17.715205	-2.222063
					}
				}
			}
		}
	}
}
MOTION
Frames:     16
Frame Time: 0.016667
2.513965	100.230412	2.275255	2.867779	-0.035479	10.105960	-3.602280	-14.414626	9.453788	6.169753	26.581060	-12.093326	-0.375040	-12.000017	-9.927249	0.	0.	0.	-6.441762	-13.256841	-3.144667	4.111044	31.378681	-3.953281	0.210063	-15.740950	-9.900877	0.	0.	0.	0.000000	0.000000	-0.000000	3.697131	6.066008	12.375439	3.942898	-7.086524	12.079609	36.442265	-44.175941	21.051878	-71.986282	-39.704319	-58.627399	-11.165647	18.262554	-18.158697	-10.570010	0.761301	14.313492	-14.639024	-50.256660	-0.072259	30.890821	-52.152996	47.755451	-4.518607	5.614921	18.951239	-6.334655	5.044561	-11.674196	10.708877	0.542331	-5.798542	
2.404815	100.408482	2.222605	2.988342	-0.294409	9.675783	-3.527153	-14.260845	9.464999	5.656806	26.366861	-12.413604	0.011894	-11.588441	-8.933716	0.	0.	0.	-6.253872	-12.687185	-5.300812	2.482330	30.684587	-0.306631	-0.611768	-15.507356	-10.829170	0.	0.	0.	-0.000000	0.000000	0.000001	7.287433	7.017423	8.886576	3.937182	-7.593162	11.618423	38.882652	-53.104237	18.524414	-51.503258	-38.151157	-44.840633	1.766222	14.681540	-20.951948	-11.441025	1.844983	12.922511	-10.388264	-47.699841	6.465060	35.855804	-50.787933	52.511703	-5.457087	6.123494	19.647203	-11.865630	4.868712	-7.120061	7.634514	0.317992	-0.495295	
2.174075	100.464554	2.067259	2.899485	-0.795540	9.354879	-3.269731	-13.801112	9.823617	5.615518	25.995899	-13.891279	0.319917	-11.132595	-7.413104	0.	0.	0.	-5.682070	-11.933707	-6.841275	1.275676	29.935251	2.061240	-1.593493	-15.533505	-11.466821	0.	0.	0.	-0.000000	0.000000	0.000001	9.241160	7.757698	6.919841	5.224881	-8.961612	9.140926	34.223152	-62.715420	9.418818	-25.282084	-28.509733	-31.739309	14.357662	8.167546	-24.240152	-10.372835	2.333897	9.670973	-8.551962	-44.727390	11.942993	39.255993	-48.599377	54.997608	-6.159946	6.477316	21.276131	-16.011797	5.268205	-4.477125	7.046387	-0.982068	5.428994	
1.916772	100.441406	1.916842	2.812120	-1.118152	9.389822	-3.273294	-13.703915	9.076223	5.681549	25.827326	-14.942925	0.422893	-10.664993	-5.668055	0.	0.	0.	-5.136587	-11.334726	-7.139034	0.908621	29.272717	2.224192	-2.370056	-15.806487	-11.699899	0.	0.	0.	0.000000	0.000000	0.000002	12.520200	8.158996	2.144772	5.142765	-10.333960	8.626468	16.947052	-71.328667	-10.864341	-1.636140	-9.531751	-24.436098	16.463108	-1.294277	-24.009830	-11.002905	2.191402	8.490196	-8.214376	-40.512280	15.551493	42.298046	-47.246880	58.364727	-7.057092	6.859089	22.843100	-19.727158	3.651267	-0.891606	4.754868	-0.461487	13.146346	
1.840348	100.504484	1.714983	2.812874	-1.219239	9.645766	-4.963079	-14.652602	3.719748	5.470056	26.733852	-12.081407	0.489223	-10.242269	-3.496730	0.	0.	0.	-4.988037	-11.125259	-6.825758	1.112721	28.953350	1.980486	-2.875816	-15.896980	-12.334376	0.	0.	0.	-0.000000	0.000000	0.000001	14.798824	7.308171	-3.015727	5.965075	-11.819537	6.938469	-2.654985	-76.515335	-35.173092	10.116870	9.101706	-15.126521	7.938968	-2.801614	-19.736673	-11.215132	2.851595	7.889422	-9.979190	-36.103092	16.855339	44.265797	-46.282433	61.062725	-7.937398	7.134970	22.525032	-20.308397	0.803492	1.830545	1.350860	1.877355	19.530962	
1.855067	100.592550	1.504126	2.989213	-0.891692	9.563288	-6.249714	-15.416417	1.205715	5.762533	27.055946	-12.156318	0.592868	-9.991935	-1.019333	0.	0.	0.	-5.235653	-11.542304	-5.338382	2.029494	28.812187	1.440542	-3.238699	-15.691280	-13.522301	0.	0.	0.	-0.000000	0.000000	-0.000001	16.030279	5.859855	-8.235582	4.594670	-13.979897	3.549567	-1.340881	-78.361282	-33.586494	13.598904	15.814864	-11.560670	8.787774	-3.259503	-19.012522	-10.660193	3.300123	7.588118	-12.004933	-31.652084	17.302629	44.709026	-44.621006	61.278797	-8.610170	7.422253	21.763065	-22.436651	-4.028415	4.459427	1.555261	6.299340	22.517870	
1.758817	100.697321	1.464685	3.268975	0.079427	8.686869	-7.310082	-16.670967	1.531088	6.681140	27.158819	-13.887448	0.723977	-9.993262	0.868954	0.	0.	0.	-5.755796	-12.718991	-4.037645	2.873006	28.703335	0.963175	-3.351632	-15.455999	-13.737078	0.	0.	0.	-0.000000	0.000000	-0.000002	16.184881	4.596158	-11.235287	3.622442	-14.178914	0.891541	-3.327379	-76.591873	-28.808901	17.089108	8.598822	-17.225451	8.484590	-3.965802	-14.667265	-10.051929	3.075177	6.728973	-12.948095	-27.705311	16.593164	43.484009	-42.447071	59.352261	-9.301211	7.696866	22.058371	-26.121578	-6.746312	4.925188	5.516551	8.578476	25.417749	
1.648526	100.714597	1.466108	3.250995	0.456362	8.028686	-7.395998	-17.147438	1.944140	6.846969	27.187469	-14.206163	0.762009	-10.060866	1.322555	0.	0.	0.	-5.850419	-13.264758	-4.052303	2.952113	28.692682	0.881496	-3.265902	-15.383785	-13.019312	0.	0.	0.	0.000000	0.000000	0.000004	15.386565	3.512590	-13.259102	4.006991	-13.572605	1.196737	-3.002794	-76.441971	-27.876284	14.667053	5.680220	-17.031643	6.130404	-4.463639	-11.722908	-9.437957	3.341308	7.694402	-13.367065	-25.302525	15.371868	43.348583	-41.746876	59.162258	-9.726744	7.523432	22.180149	-25.758768	-6.439024	5.540185	6.473120	8.383657	27.646065	
1.454066	100.657924	1.723709	2.808664	0.727407	6.500792	-6.612083	-17.540770	3.028648	6.701665	27.153782	-13.924267	0.746758	-10.160680	1.496441	0.	0.	0.	-5.087089	-13.734164	-2.515328	3.187718	28.524321	-0.303991	-3.126355	-15.338134	-11.893332	0.	0.	0.	-0.000000	-0.000000	-0.000002	15.693772	3.610224	-11.692633	3.267401	-14.337993	-0.613661	-2.883687	-76.920914	-28.443619	10.485235	3.577467	-14.971460	1.737167	-8.465951	-12.230515	-9.450696	2.879357	5.966445	-13.935695	-22.550030	13.544520	47.809036	-41.528259	64.988541	-10.692053	10.407127	19.875011	-25.002127	-5.777311	3.150062	5.249839	7.730331	29.868393	
1.487391	100.566990	2.034374	2.137292	1.006063	4.022734	-5.231398	-17.296352	3.872391	5.776001	26.947144	-12.394322	0.789517	-10.641929	1.881409	0.	0.	0.	-5.003263	-14.318276	-6.191061	1.702008	28.581083	3.090693	-2.799333	-15.380780	-8.718723	0.	0.	0.	0.000000	0.000000	0.000001	13.752012	2.227190	-12.023951	5.256693	-12.774388	-1.332830	-23.320415	-75.369377	-45.278854	8.878819	-1.405778	-19.342449	5.284804	-3.647891	-13.715919	-7.806602	2.559669	3.918709	-19.011572	-11.525697	7.846908	48.319668	-41.370174	61.116894	-9.992377	6.013546	20.710718	-21.429380	-5.753569	2.096972	2.713853	8.452138	34.064510	
1.502604	100.517584	2.331238	1.886633	1.108735	2.376339	-5.005302	-17.435787	2.090690	4.656812	27.850597	-9.806591	1.020249	-11.228918	3.047581	0.	0.	0.	-4.992735	-14.579455	-9.005973	0.312849	28.639761	7.105839	-2.886199	-15.290501	-7.926949	0.	0.	0.	-0.000000	0.000000	0.000002	13.161585	1.305483	-11.630420	5.909394	-11.028972	-3.753402	-36.127926	-73.048462	-58.212418	10.506842	-1.883594	-19.083210	4.079876	-2.745209	-13.335905	-7.523538	3.584734	2.937797	-21.293556	-8.043490	8.053573	48.625980	-43.121349	59.713966	-10.282206	5.437580	20.819487	-21.511024	-5.606817	1.890553	6.067097	8.942996	36.178650	
1.500357	100.365839	2.496266	1.679605	1.074799	0.802439	-4.863866	-17.792377	0.742330	3.828699	28.789619	-7.410980	1.152034	-11.700350	3.837161	0.	0.	0.	-4.545371	-15.097137	-8.853911	-0.353129	29.185982	8.339130	-2.816941	-15.295382	-7.560393	0.	0.	0.	0.000000	-0.000000	0.000000	12.681033	1.243656	-11.493048	6.700667	-9.981653	-4.695261	-37.431770	-72.036942	-57.087566	9.685022	-3.805188	-20.119156	3.775408	-1.979252	-14.498955	-7.220924	4.338386	2.433326	-23.391407	-5.678818	7.784805	48.446255	-44.469353	59.007099	-10.583755	4.792608	20.980932	-21.796368	-6.038871	1.514323	5.715549	8.538698	35.945580	
1.491774	100.309719	2.795308	1.426482	0.867190	-0.646571	-4.141583	-17.699835	2.280613	3.828699	28.789619	-7.410980	1.152034	-11.700350	3.837161	0.	0.	0.	-3.898222	-14.997412	-7.337296	-0.353129	29.185982	8.339130	-2.816941	-15.295382	-7.560393	0.	0.	0.	0.000000	-0.000000	0.000002	12.370868	1.917050	-11.258902	7.448280	-9.888198	-3.525839	-37.431770	-72.036942	-57.087566	6.730522	-5.661092	-20.911598	3.410934	-1.651366	-13.939974	-6.917439	4.670677	2.162191	-25.502968	-3.487454	6.675308	48.998711	-45.506134	59.424690	-10.651343	4.202071	20.883471	-21.812830	-6.551248	1.227105	3.843591	7.866652	35.115124	
1.582153	99.975117	2.809253	1.274779	0.643167	-1.932244	-3.896827	-17.007639	1.074257	2.754242	29.005707	-5.069453	1.373397	-12.438128	4.380601	0.	0.	0.	-3.749333	-15.782438	-6.115289	-0.162634	30.628084	7.260768	-2.570303	-15.533547	-6.590368	0.	0.	0.	-0.000000	-0.000001	0.000000	12.026054	2.898708	-10.898369	7.923697	-9.052105	-5.369035	-39.600761	-70.396759	-58.050064	8.775025	-7.778740	-22.157238	3.614599	-1.198814	-14.078443	-6.665090	4.640952	1.951775	-27.484348	-1.172335	5.372200	50.032478	-46.327198	60.325974	-10.628271	3.600268	20.537201	-21.539793	-6.820429	0.891059	4.215414	7.100410	35.722759	
1.607890	99.940565	3.006604	1.136430	0.372949	-2.970714	-3.278554	-16.256573	2.079014	2.392450	28.676489	-4.351644	1.380244	-12.722550	3.889424	0.	0.	0.	-3.406230	-16.059887	-4.814121	-0.195246	31.463478	7.222827	-2.501787	-15.832650	-6.789840	0.	0.	0.	0.000000	0.000000	0.000002	11.626920	3.635660	-10.503239	8.366199	-8.477052	-5.371733	-40.861687	-69.522537	-58.896217	8.347031	-9.643125	-22.303785	3.524594	-0.483902	-14.318762	-6.498499	4.755058	1.687500	-29.048395	0.937387	4.335046	50.711590	-46.963699	60.962135	-10.611634	3.118573	20.381792	-20.929302	-6.083655	0.643235	4.850043	5.718701	36.503101	
1.546738	99.996715	3.285139	1.041566	0.128997	-3.700807	-2.789997	-15.552202	3.426274	2.406034	28.360661	-4.324185	1.309045	-12.936935	3.303959	0.	0.	0.	-3.012933	-16.163198	-4.155551	-0.633947	32.125862	8.139202	-2.542671	-16.184490	-7.461739	0.	0.	0.	-0.000000	-0.000000	0.000002	11.216187	4.194055	-10.116697	8.922392	-7.938171	-5.326632	-41.948666	-68.334114	-58.028347	7.712728	-11.995916	-23.244236	3.333605	0.281613	-14.733598	-6.344356	4.836534	1.300110	-30.160486	2.821842	3.617464	50.396809	-47.509125	61.034019	-10.497121	2.628310	20.622099	-19.982222	-4.901464	0.683604	4.990917	4.532500	35.798229	
